<?xml version="1.0" encoding="UTF-8"?>
<svg width="24px" height="34px" viewBox="0 0 24 34" version="1.1" xmlns="http://www.w3.org/2000/svg" xmlns:xlink="http://www.w3.org/1999/xlink">
    <!-- Generator: Sketch 46.2 (44496) - http://www.bohemiancoding.com/sketch -->
    <title>2</title>
    <desc>Created with Sketch.</desc>
    <defs></defs>
    <g id="Page-1" stroke="none" stroke-width="1" fill="none" fill-rule="evenodd">
        <g id="sk-samurai-books-single" transform="translate(-841.000000, -382.000000)" stroke="#C23913" fill="#C23913">
            <g id="section1" transform="translate(452.000000, 360.000000)">
                <g id="title">
                    <path d="M390,31.5333333 C391.391607,25.8444444 394.522724,23 399.393349,23 C406.699287,23 409.830403,27.2666667 409.830403,33.6666667 C409.830403,37.9333333 406.351385,42.5555556 399.393349,47.5333333 L399.393349,48.6 C399.393349,48.6 400.089153,48.6 401.48076,48.6 C403.568171,48.6 407.742992,53.9333333 410.874109,51.8 C414.005225,49.6666667 409.830403,55 407.742992,55 C405.655581,55 401.48076,52.8666667 398.349643,52.8666667 C395.218527,52.8666667 392.087411,55 392.087411,55 C392.087411,55 391.391607,53.2222222 390,49.6666667 L394.174822,48.6 C401.828662,42.2 405.655581,37.5777778 405.655581,34.7333333 C405.655581,30.4666667 402.524465,29.4 400.437054,29.4 C397.305938,29.4 395.218527,33.6666667 395.218527,33.6666667 C395.218527,33.6666667 393.479018,32.9555556 390,31.5333333 Z" id="2"></path>
                </g>
            </g>
        </g>
    </g>
</svg>