<?xml version="1.0" encoding="UTF-8"?>
<svg width="22px" height="22px" viewBox="0 0 22 22" version="1.1" xmlns="http://www.w3.org/2000/svg" xmlns:xlink="http://www.w3.org/1999/xlink">
    <!-- Generator: Sketch 46.2 (44496) - http://www.bohemiancoding.com/sketch -->
    <title>bushido-map</title>
    <desc>Created with Sketch.</desc>
    <defs></defs>
    <g id="Page-1" stroke="none" stroke-width="1" fill="none" fill-rule="evenodd" stroke-opacity="0.8">
        <g id="sk-samurai-map" transform="translate(-850.000000, -1407.000000)" stroke="#000000" stroke-width="0.75">
            <g id="bushido-map" transform="translate(851.000000, 1408.000000)">
                <path d="M20,18.2545161 L19.9800373,18.0351613 C19.6522635,14.423871 17.4206324,11.8316129 17.3256488,11.7229032 L17.1756069,11.5509677 L16.9637453,11.6358065 C16.7721682,11.7125806 16.5950802,11.7893548 16.4292614,11.8651613 C16.3996394,11.2412903 16.3065877,10.7170968 16.2264151,10.3667742 C17.9412712,10.3167742 19.5737008,10.6345161 19.5962393,10.6387097 L19.9813253,10.7158065 L19.9813253,10.3225806 C19.9813253,7.04516129 19.0108829,5.38677419 18.9693477,5.31774194 L18.8595531,5.13419355 L18.6476914,5.16451613 C18.1099878,5.2416129 17.5764698,5.38870968 17.071286,5.56806452 C16.9621354,4.23354839 15.9495138,3.15451613 14.6483998,2.94387097 C15.458497,1.66129032 15.7795093,0.426774194 15.7859489,0.400967742 L15.8860841,7.16272919e-17 L12.8978041,7.16272919e-17 L12.8978041,0.322580645 C12.8978041,1.03580645 12.7561337,1.64580645 12.5404083,2.17290323 C12.3443235,0.943548387 11.2814734,0 10,0 C8.72239037,0 7.66211604,0.937419355 7.46120162,2.16129032 C7.24483225,1.63580645 7.10219589,1.02935484 7.10219589,0.322580645 L7.10219589,0 L4.1139159,0 L4.21405113,0.400967742 C4.22049069,0.426774194 4.54150299,1.66129032 5.35160023,2.94387097 C4.05048619,3.15451613 3.03754266,4.23354839 2.92871402,5.56806452 C2.42353017,5.38870968 1.89001224,5.2416129 1.35230858,5.16451613 L1.14044691,5.13419355 L1.03065233,5.31774194 C0.989117136,5.38677419 0.0186747376,7.04516129 0.0186747376,10.3225806 L0.0186747376,10.7158065 L0.403760706,10.6387097 C0.42662116,10.6345161 2.05905081,10.3164516 3.77358491,10.3664516 C3.69341233,10.7167742 3.60003864,11.2409677 3.57073862,11.8651613 C3.40491983,11.7890323 3.2278318,11.7122581 3.03625475,11.6358065 L2.82439307,11.5509677 L2.67435121,11.7229032 C2.57936763,11.8316129 0.347736493,14.4241935 0.0199626505,18.0351613 L0,18.2545161 L2.05744092,19.2851613 L1.83463198,20 L10,20 L18.165368,20 L17.9422371,19.2851613 L20,18.2545161 Z" id="Path"></path>
                <path d="M18.8943267,15.956129 C18.2632494,16.23 17.5928907,16.6670968 17.2087707,16.9335484 L17.1038058,16.5974194 C17.0281409,16.3545161 16.9283276,16.123871 16.8108056,15.903871 C17.0809453,15.6683871 17.7104128,15.1748387 18.4982935,14.9106452 C18.6402859,15.2377419 18.7751948,15.5858065 18.8943267,15.956129 Z" id="Path"></path>
                <path d="M18.2258999,14.3225806 C17.425462,14.6054839 16.7876232,15.0780645 16.4579174,15.3564516 C16.3423273,15.206129 16.2161118,15.063871 16.0789491,14.9309677 C16.1497843,14.8829032 16.2186876,14.8345161 16.2920987,14.7874194 L16.582845,14.5996774 L16.375169,14.3225806 C16.3696954,14.3151613 16.345547,14.2841935 16.3040118,14.2364516 C16.7019769,13.9816129 17.306974,13.6554839 17.8202074,13.5719355 C17.9531844,13.7993548 18.0903471,14.05 18.2258999,14.3225806 Z" id="Path"></path>
                <path d="M16.9843519,12.3251613 C17.0947904,12.4670968 17.262863,12.6945161 17.4576599,12.9893548 C16.8037221,13.1629032 16.1555799,13.5577419 15.8252302,13.7790323 C15.6597334,13.6416129 15.4543113,13.4883871 15.2038122,13.3290323 C15.4498036,13.133871 16.0139095,12.7367742 16.9843519,12.3251613 Z" id="Path"></path>
                <path d="M6.13626119,9.35483871 L6.13626119,6.57677419 C6.79245283,6.77387097 8.14733724,7.09677419 10,7.09677419 C11.8526628,7.09677419 13.2075472,6.77387097 13.8637388,6.57677419 L13.8637388,9.35483871 C13.8637388,11.4893548 12.13053,13.2258065 10,13.2258065 C7.86947002,13.2258065 6.13626119,11.4893548 6.13626119,9.35483871 Z" id="Path"></path>
                <path d="M6.72354949,12.4467742 C6.20838431,12.6112903 5.76534226,12.7980645 5.39023762,12.99 C5.33775517,12.9387097 4.97585163,12.6016129 4.2056797,12.1822581 C4.21340717,11.4096774 4.33962264,10.7616129 4.4275227,10.4032258 C4.85929551,10.4422581 5.28269689,10.5119355 5.67583231,10.6203226 C5.87803464,11.3125806 6.24219203,11.9348387 6.72354949,12.4467742 Z" id="Path"></path>
                <path d="M10,5.80645161 C11.1745766,5.80645161 12.1324618,5.42096774 12.9081074,4.85774194 C13.1376779,4.94032258 13.7346255,5.21967742 13.8447421,5.90612903 C13.3311868,6.07193548 11.9450705,6.4516129 10,6.4516129 C8.05492949,6.4516129 6.66881319,6.07193548 6.15557988,5.90612903 C6.26537446,5.21870968 6.86361002,4.93967742 7.09189259,4.85774194 C7.86753815,5.42064516 8.8254234,5.80645161 10,5.80645161 Z" id="Path"></path>
                <path d="M9.0340653,3.5483871 C9.0340653,3.01483871 9.467448,2.58064516 10,2.58064516 C10.532552,2.58064516 10.9659347,3.01483871 10.9659347,3.5483871 C10.9659347,4.08193548 10.532552,4.51612903 10,4.51612903 C9.467448,4.51612903 9.0340653,4.08193548 9.0340653,3.5483871 Z" id="Path"></path>
                <path d="M14.3241677,10.6206452 C14.7173031,10.5122581 15.1410265,10.4429032 15.5731213,10.4035484 C15.6606993,10.7606452 15.7865928,11.4064516 15.7943203,12.1825806 C15.0241484,12.6019355 14.6622448,12.9390323 14.6097624,12.9903226 C14.2346577,12.7983871 13.7919377,12.6112903 13.2764505,12.4470968 C13.757808,11.9354839 14.1216434,11.3132258 14.3241677,10.6206452 Z" id="Path"></path>
                <path d="M12.2538476,13.8709677 L12.2538476,13.26 C12.4129049,13.1674194 12.5648786,13.0651613 12.7107348,12.9545161 C14.3119325,13.3954839 15.2279606,14.09 15.6220619,14.46 C14.6310129,15.1496774 13.8811256,15.9232258 13.372722,16.7741935 L10.3219782,16.7741935 L10.3219782,15.333871 L12.2538476,14.0435484 L12.2538476,13.8709677 Z" id="Path"></path>
                <path d="M18.5137485,5.84 C18.7375233,6.31806452 19.2761929,7.69225806 19.3325391,9.93741935 C19.1625346,9.91 18.9426235,9.87774194 18.6876167,9.84612903 C18.6348123,8.19903226 17.7638612,6.62322581 17.4570159,6.1183871 C17.8018546,6.00290323 18.1566746,5.90483871 18.5137485,5.84 Z" id="Path"></path>
                <path d="M18.0404405,9.77741935 C17.0039925,9.68612903 15.6532938,9.65645161 14.4687359,9.91903226 C14.4919183,9.73387097 14.5076953,9.54612903 14.5076953,9.35483871 L14.5076953,7.59 C14.8348252,7.37129032 15.73894,6.7983871 16.8410715,6.34774194 C17.0036706,6.60451613 17.9560822,8.17516129 18.0404405,9.77741935 Z" id="Path"></path>
                <path d="M16.4395647,5.80645161 C16.4395647,5.80903226 16.4392427,5.8116129 16.4389207,5.81419355 C15.6317213,6.15677419 14.9455857,6.54903226 14.5076953,6.82193548 L14.5076953,6.12903226 C14.5076953,5.22741935 13.9603323,4.67967742 13.4606221,4.40129032 C13.7455728,4.13451613 14.0002576,3.84645161 14.2266083,3.55032258 C15.4504475,3.57290323 16.4395647,4.57516129 16.4395647,5.80645161 Z" id="Path"></path>
                <path d="M13.5330672,0.64516129 L15.0386374,0.64516129 C14.8799021,1.11548387 14.5592118,1.93322581 14.0276257,2.74096774 C13.1524889,4.07064516 12.0728959,4.85774194 10.8104192,5.08935484 C11.7692704,4.48548387 13.4004121,3.10451613 13.5330672,0.64516129 Z" id="Path"></path>
                <path d="M8.06813059,2.58064516 C8.06813059,1.51322581 8.93457402,0.64516129 10,0.64516129 C11.065426,0.64516129 11.9318694,1.51322581 11.9318694,2.58064516 L11.9318694,3.22580645 L11.9441046,3.22580645 C11.833666,3.3716129 11.7187198,3.50419355 11.6018417,3.6283871 C11.6031296,3.60129032 11.6098912,3.57580645 11.6098912,3.5483871 C11.6098912,2.65903226 10.887694,1.93548387 10,1.93548387 C9.11230601,1.93548387 8.39010883,2.65903226 8.39010883,3.5483871 C8.39010883,3.57 8.39558246,3.59 8.39654839,3.6116129 C8.28482195,3.4916129 8.17438341,3.36483871 8.06813059,3.22580645 L8.06813059,2.58064516 L8.06813059,2.58064516 Z" id="Path"></path>
                <path d="M4.96136261,0.64516129 L6.46693284,0.64516129 C6.59958787,3.10451613 8.23105158,4.48548387 9.18958078,5.08903226 C7.92710413,4.85741935 6.84751111,4.07032258 5.97237427,2.74064516 C5.44046622,1.93322581 5.1197759,1.11548387 4.96136261,0.64516129 Z" id="Path"></path>
                <path d="M5.77306974,3.55032258 C5.99942044,3.84645161 6.25410522,4.13451613 6.53905596,4.40129032 C6.03966772,4.67967742 5.49230472,5.22741935 5.49230472,6.12903226 L5.49230472,6.82193548 C5.05441432,6.54903226 4.36795673,6.15677419 3.56107927,5.81419355 C3.56075729,5.8116129 3.56043531,5.80903226 3.56043531,5.80645161 C3.56043531,4.57516129 4.54955245,3.57290323 5.77306974,3.55032258 Z" id="Path"></path>
                <path d="M0.667782858,9.93774194 C0.723807071,7.6916129 1.26279863,6.31741935 1.48625153,5.84 C1.84300341,5.90483871 2.19782343,6.00322581 2.54298409,6.11870968 C2.23613884,6.62354839 1.36550969,8.19935484 1.31270526,9.84612903 C1.05737652,9.87774194 0.837465387,9.91032258 0.667782858,9.93774194 Z" id="Path"></path>
                <path d="M1.95955953,9.77741935 C2.04423981,8.17967742 2.99536351,6.60677419 3.15892846,6.34806452 C4.260416,6.7983871 5.16517483,7.37129032 5.49230472,7.59 L5.49230472,9.35483871 C5.49230472,9.54612903 5.50808165,9.73354839 5.53126409,9.91903226 C4.34670616,9.65612903 2.99568549,9.68580645 1.95955953,9.77741935 Z" id="Path"></path>
                <path d="M3.01564814,12.3251613 C3.98609054,12.7367742 4.55051838,13.133871 4.7958658,13.3290323 C4.54568871,13.4883871 4.33994462,13.6416129 4.17444781,13.7790323 C3.84442012,13.5577419 3.19627793,13.1629032 2.54201816,12.9893548 C2.73681499,12.6945161 2.90488763,12.4670968 3.01564814,12.3251613 Z" id="Path"></path>
                <path d="M2.17979265,13.5716129 C2.69206002,13.6551613 3.2973791,13.9816129 3.69598815,14.236129 C3.65477494,14.2835484 3.63062657,14.3145161 3.62515294,14.3219355 L3.41747698,14.5990323 L3.70822332,14.7867742 C3.78163436,14.8341935 3.8505377,14.8825806 3.92105094,14.9303226 C3.78388821,15.063871 3.65767274,15.2064516 3.54208256,15.3564516 C3.21237684,15.0780645 2.57453796,14.6051613 1.77410007,14.3222581 C1.90997489,14.0496774 2.04681564,13.7993548 2.17979265,13.5716129 Z" id="Path"></path>
                <path d="M1.50170648,14.9106452 C2.28636744,15.1745161 2.91808874,15.6683871 3.18887243,15.9035484 C3.07135038,16.1235484 2.9718591,16.3545161 2.89619422,16.5970968 L2.79122931,16.9332258 C2.40710928,16.6667742 1.7367506,16.2296774 1.10567326,15.9558065 C1.2248052,15.5858065 1.35971408,15.2377419 1.50170648,14.9106452 Z" id="Path"></path>
                <path d="M2.25223775,18.6612903 L0.683559791,17.8758065 C0.735398287,17.426129 0.821366476,16.9948387 0.926975336,16.5816129 C1.58187906,16.8793548 2.29860261,17.3722581 2.58934896,17.5803226 L2.25223775,18.6612903 Z" id="Path"></path>
                <path d="M5.53512783,19.3548387 L5.81170713,17.1367742 L5.17290231,17.0567742 L4.88601971,19.3548387 L2.71041278,19.3548387 L3.51085067,16.7893548 C3.68954859,16.2164516 4.01345869,15.7135484 4.452637,15.3154839 C5.91699401,16.4606452 6.67879451,17.7906452 6.76991435,19.3548387 L5.53512783,19.3548387 Z" id="Path"></path>
                <path d="M9.67802177,19.3548387 L7.4141928,19.3548387 C7.40227961,19.136129 7.37748728,18.9212903 7.3417477,18.7096774 L9.67802177,18.7096774 L9.67802177,19.3548387 Z" id="Path"></path>
                <path d="M9.67802177,18.0645161 L7.19363771,18.0645161 C7.12892009,17.8451613 7.05132333,17.63 6.95923756,17.4193548 L9.67802177,17.4193548 L9.67802177,18.0645161 Z" id="Path"></path>
                <path d="M9.67802177,16.7741935 L6.627278,16.7741935 C6.11887436,15.9232258 5.36898706,15.1496774 4.37793805,14.46 C4.77268337,14.0896774 5.68871144,13.3954839 7.28926525,12.9545161 C7.43512139,13.0651613 7.58709511,13.1674194 7.74615236,13.26 L7.74615236,13.8709677 L7.74615236,14.0435484 L9.67802177,15.333871 L9.67802177,16.7741935 L9.67802177,16.7741935 Z" id="Path"></path>
                <path d="M8.39010883,13.6983871 L8.39010883,13.5680645 C8.89078498,13.7609677 9.43235237,13.8709677 10,13.8709677 C10.5676476,13.8709677 11.109215,13.7609677 11.6098912,13.5680645 L11.6098912,13.6983871 L10,14.7735484 L8.39010883,13.6983871 Z" id="Path"></path>
                <path d="M12.8063623,18.0645161 L11.9318694,18.0645161 L11.9318694,18.7096774 L12.6582523,18.7096774 C12.6228347,18.9212903 12.5977204,19.136129 12.5861292,19.3548387 L10.3219782,19.3548387 L10.3219782,18.7096774 L11.2879129,18.7096774 L11.2879129,18.0645161 L10.3219782,18.0645161 L10.3219782,17.4193548 L13.0407624,17.4193548 C12.9486767,17.63 12.8710799,17.8451613 12.8063623,18.0645161 Z" id="Path"></path>
                <path d="M15.1139803,19.3548387 L14.8270977,17.0567742 L14.1882929,17.1367742 L14.4648722,19.3548387 L13.2300856,19.3548387 C13.3215275,17.7906452 14.083006,16.4606452 15.547363,15.3154839 C15.9865413,15.7135484 16.3104514,16.2164516 16.4891493,16.7893548 L17.2895872,19.3548387 L15.1139803,19.3548387 Z" id="Path"></path>
                <path d="M17.410651,17.58 C17.7013974,17.3719355 18.4181209,16.8790323 19.0730247,16.5812903 C19.1786335,16.9945161 19.2646017,17.4258065 19.3164402,17.8754839 L17.7477623,18.6612903 L17.410651,17.58 Z" id="Path"></path>
            </g>
        </g>
    </g>
</svg>