<?xml version="1.0" encoding="UTF-8"?>
<svg width="621px" height="596px" viewBox="0 0 621 596" version="1.1" xmlns="http://www.w3.org/2000/svg" xmlns:xlink="http://www.w3.org/1999/xlink">
    <!-- Generator: Sketch 46.2 (44496) - http://www.bohemiancoding.com/sketch -->
    <title>japan</title>
    <desc>Created with Sketch.</desc>
    <defs>
        <path d="M616.171158,57.4745522 C611.332562,52.9745786 610.29572,51.9361232 606.493965,46.7438459 C602.692211,41.2054168 597.853614,37.051595 597.853614,37.051595 C597.853614,37.051595 591.978176,29.436255 589.558878,26.3208887 C587.485193,23.2055223 579.881685,15.9363341 579.881685,15.9363341 L573.315018,28.0516478 C573.315018,28.0516478 564.674667,25.2824332 566.748351,29.0901032 C568.822035,32.8977732 571.586948,37.3977468 571.586948,39.8208096 C571.586948,42.2438723 574.697474,65.436044 574.697474,65.436044 C574.697474,65.436044 577.462386,63.705285 573.660632,73.7436877 C569.858878,83.4359386 568.822035,88.9743676 568.822035,88.9743676 C568.822035,88.9743676 562.255369,86.2051531 561.218527,95.897404 C560.181685,105.589655 560.527299,114.935754 556.725544,122.551094 C552.92379,130.166434 552.92379,130.166434 552.92379,130.166434 C552.92379,130.166434 546.357123,121.512638 538.408,119.781879 C530.113263,118.05112 533.915018,117.012665 530.113263,118.05112 C526.311509,119.089576 526.311509,123.589549 526.311509,128.435675 C526.311509,133.2818 530.113263,134.320256 525.620281,139.858685 C521.127299,145.397114 516.97993,149.204784 516.97993,149.204784 C516.97993,149.204784 518.708,158.897035 512.486948,159.589338 C506.611509,160.281642 507.648351,153.012454 506.611509,160.281642 C505.574667,167.204678 504.537825,173.435411 507.648351,177.589233 C510.758878,181.743055 513.52379,182.435358 514.560632,187.281484 C515.597474,192.127609 515.25186,199.396797 515.25186,199.396797 C515.25186,199.396797 508.339579,207.704441 511.450106,209.089048 C514.560632,210.819807 504.883439,218.435147 518.362386,210.127504 C531.841334,201.81986 536.334316,198.704494 536.334316,198.704494 L540.13607,196.627583 L547.739579,197.319887 L542.900983,185.896877 C542.900983,185.896877 541.172913,180.012296 540.13607,178.281537 C539.099228,176.550777 540.13607,178.97384 533.22379,176.550777 C526.311509,174.127715 526.311509,174.473867 526.311509,174.473867 L525.620281,165.127767 C525.620281,165.127767 539.099228,157.512428 542.555369,163.050857 C545.665895,168.589286 541.518527,168.935437 545.665895,168.589286 C550.158878,167.896982 544.629053,170.320045 556.034316,163.74316 C567.439579,157.166276 561.909755,151.281695 567.439579,157.166276 C572.969404,163.050857 557.071158,159.93549 577.808,166.858527 C598.544842,173.781563 606.148351,178.281537 606.148351,178.281537 L609.950106,183.127662 L619.627299,183.819966 C619.627299,183.819966 618.93607,192.127609 626.539579,182.78151 C634.143088,173.435411 638.981685,166.512375 638.981685,166.512375 L640.709755,152.32015 C640.709755,152.32015 640.709755,146.435569 650.041334,142.627899 C659.372913,138.820229 651.769404,138.820229 659.372913,138.820229 C666.976421,138.820229 668.013263,141.589444 674.57993,140.550988 C681.146597,139.512533 674.57993,140.550988 685.293965,136.051015 C696.008,131.551041 689.786948,136.051015 696.008,131.551041 C702.574667,127.051068 702.574667,127.051068 702.574667,127.051068 L695.662386,117.358817 L691.860632,101.089681 C691.860632,101.089681 691.169404,101.781985 696.353614,90.3589749 C701.192211,78.9359649 701.192211,74.4359913 701.192211,74.4359913 L694.625544,77.2052058 L680.455369,89.3205195 C680.455369,89.3205195 681.492211,93.1281894 666.285193,93.1281894 C651.078176,93.1281894 658.681685,93.1281894 651.078176,93.1281894 C643.474667,93.1281894 639.672913,93.8204931 638.63607,88.6282158 C637.599228,83.7820904 635.871158,75.4744468 634.834316,74.0898395 C633.797474,71.6667768 621.009755,61.6283741 616.171158,57.4745522 Z" id="path-1"></path>
    </defs>
    <g id="Page-1" stroke="none" stroke-width="1" fill="none" fill-rule="evenodd">
        <g id="sk-samurai-map" transform="translate(-486.000000, -1047.000000)">
            <g id="japan" transform="translate(400.000000, 1034.000000)">
                <g>
                    <path d="M103.044071,548.618837 C103.044071,548.618837 105.469312,544.106685 105.469312,542.371242 C105.469312,540.635799 103.044071,535.42947 103.736997,532.652761 C104.429923,529.876052 108.933942,528.834787 111.01272,527.446432 C113.437962,526.058078 117.595518,526.058078 129.375261,521.545926 C140.80854,517.033774 129.375261,521.545926 130.068187,515.298331 C130.761113,508.703647 134.225743,513.215799 136.650984,513.215799 C139.076225,513.215799 146.005486,506.968204 146.005486,506.968204 C146.005486,506.968204 148.430727,503.15023 147.737801,501.067698 C147.044875,498.985166 148.084264,497.249723 147.737801,494.473014 C147.391338,491.696306 150.509505,487.878331 150.509505,487.878331 L155.013524,486.489976 L161.942785,487.184154 C161.942785,487.184154 164.021563,483.713268 166.446804,482.672002 C168.872045,481.630736 174.068991,479.548204 174.068991,479.548204 C174.068991,479.548204 180.651788,476.424407 180.998251,475.036052 C181.344714,473.647698 196.93555,461.499597 196.93555,461.499597 L202.132495,453.863647 C202.132495,453.863647 205.250663,449.351495 206.982978,447.616052 C208.715293,446.227698 222.573814,438.938837 224.999055,439.285926 C227.424296,439.285926 231.235389,443.798078 231.235389,443.798078 C231.235389,443.798078 234.70002,444.839344 238.16465,445.186432 C241.62928,445.533521 265.881692,436.856306 268.306933,436.856306 C270.732174,436.856306 276.968508,433.732508 276.968508,433.732508 C276.968508,433.732508 282.85838,434.079597 283.897769,434.426685 C284.937158,434.773774 290.827029,432.691242 290.827029,432.691242 L296.716901,430.261622 L298.795679,432.691242 L298.449216,439.980103 C298.449216,439.980103 305.724939,440.67428 308.15018,440.67428 C310.575421,440.67428 316.465293,438.24466 318.890534,436.162128 C321.315775,434.079597 323.741016,436.856306 323.741016,436.856306 C323.741016,436.856306 329.284425,432.691242 328.937962,430.608711 C328.591499,428.526179 325.819794,422.972761 324.433942,420.196052 C323.04809,417.419344 325.819794,417.766432 328.937962,415.683901 C332.056129,413.25428 340.717704,400.064913 346.607576,392.081875 C352.84391,384.098837 348.686354,383.057571 348.686354,379.933774 C348.686354,376.809976 347.300502,369.174027 347.300502,367.785673 C347.300502,366.397318 356.30854,360.496812 360.81256,355.98466 C364.970116,351.12542 366.702431,353.902128 368.088283,353.902128 C369.474135,353.902128 364.27719,363.620609 363.584264,364.314787 C362.891338,365.356052 360.81256,373.33909 360.81256,376.115799 C360.81256,378.892508 362.198412,382.710483 365.316579,385.140103 C368.434746,387.569723 370.167061,387.569723 372.938766,384.445926 C375.71047,381.322128 393.033621,374.033268 396.844714,371.603647 C400.655807,368.826939 411.396161,362.579344 415.90018,358.067192 C420.4042,353.207951 424.561756,339.671495 424.561756,339.671495 C424.561756,339.671495 432.530405,334.118078 439.113203,329.953014 C445.696,325.787951 445.003074,320.928711 448.814167,314.681116 C452.625261,308.433521 461.633299,281.360609 462.326225,278.583901 C463.019151,275.807192 464.751466,275.113014 466.830245,270.600863 C468.909023,266.088711 465.790856,250.122635 465.444393,247.693014 C465.09793,245.263394 459.208058,245.957571 459.208058,245.957571 C459.208058,245.957571 466.483782,229.991495 467.176708,227.214787 C468.216097,224.438078 464.05854,220.620103 464.05854,220.620103 C464.05854,220.620103 463.019151,216.45504 463.712077,213.678331 C464.405003,210.901622 463.712077,208.124913 463.712077,208.124913 C463.712077,208.124913 466.137319,208.124913 470.641338,208.472002 C474.798894,208.81909 475.49182,191.811749 475.49182,191.811749 C475.49182,191.811749 475.838283,188.687951 477.224135,184.522888 C478.609987,180.357825 477.224135,184.522888 481.728155,188.340863 C486.232174,192.158837 485.192785,184.869976 487.271563,184.175799 C489.696804,183.828711 490.736193,202.918584 491.775582,205.001116 C492.814971,207.083647 494.547286,202.571495 494.547286,202.571495 C494.547286,202.571495 494.200823,198.753521 494.547286,196.670989 C494.547286,194.935546 497.665454,195.629723 497.665454,195.629723 C497.665454,195.629723 501.130084,206.736559 503.555325,207.777825 C505.980566,208.81909 509.445196,189.382128 509.445196,189.382128 C509.445196,189.382128 509.098733,185.911242 506.673492,183.828711 C506.673492,183.828711 502.515936,184.869976 500.783621,185.564154 C499.051306,186.60542 498.35838,186.60542 491.775582,187.299597 C491.775582,187.299597 492.468508,185.564154 494.893749,179.663647 C497.665454,173.763141 496.626065,172.721875 496.972528,170.639344 C497.318991,168.556812 499.397769,170.639344 499.397769,170.639344 C499.397769,170.639344 509.098733,177.581116 513.602753,178.275293 C518.453235,178.96947 515.681531,176.53985 517.760309,175.151495 C519.839087,173.763141 515.335068,200.488964 517.067383,203.95985 C518.799698,207.430736 518.106772,215.760863 518.106772,215.760863 L526.421884,225.826432 C526.421884,225.826432 531.272367,232.768204 532.311756,234.850736 C533.351145,236.933268 533.351145,252.899344 533.351145,252.899344 C533.351145,252.899344 534.044071,264.700356 534.044071,267.824154 C534.044071,270.947951 534.044071,276.501369 534.044071,278.583901 C534.044071,280.666432 527.461274,287.955293 524.343106,290.732002 C521.224939,293.508711 519.492624,295.938331 518.106772,300.797571 C516.72092,305.656812 519.839087,318.152002 519.839087,318.846179 C519.839087,319.540356 519.839087,318.846179 516.72092,318.152002 C513.949216,317.457825 510.831048,314.334027 510.831048,314.334027 C510.831048,314.334027 506.327029,317.110736 505.28764,318.846179 C504.248251,320.581622 501.130084,324.052508 499.051306,328.56466 C497.318991,333.076812 500.090695,339.671495 501.130084,342.795293 C502.515936,345.91909 503.208862,362.232255 501.82301,371.603647 C500.437158,380.97504 497.318991,383.40466 495.933139,385.487192 C494.547286,387.569723 487.271563,399.370736 487.271563,399.370736 C487.271563,399.370736 486.9251,408.047951 487.618026,410.130483 C488.310952,411.865926 493.85436,426.443647 494.893749,428.873268 C495.933139,431.302888 493.161434,434.773774 493.161434,434.773774 C493.161434,434.773774 487.271563,436.509217 486.232174,437.550483 C485.192785,438.591749 480.342302,443.103901 480.342302,443.103901 L477.917061,455.252002 L470.294875,457.334533 L458.515132,467.400103 C458.515132,467.400103 458.515132,465.317571 457.822206,461.499597 C457.12928,457.681622 457.822206,461.499597 457.822206,457.334533 C457.822206,453.16947 458.515132,447.268964 458.515132,447.268964 C458.515132,447.268964 458.168669,447.616052 465.790856,442.756812 C473.413042,437.897571 467.523171,435.81504 467.523171,435.81504 C467.523171,435.81504 463.365614,435.81504 460.247447,436.509217 C457.12928,437.203394 458.515132,438.591749 457.822206,441.368457 C457.475743,444.145166 455.050502,444.839344 454.357576,447.268964 C454.011113,449.698584 452.278798,451.781116 452.278798,451.781116 C452.278798,451.781116 452.278798,451.781116 450.892946,449.698584 C449.507093,447.268964 444.310148,450.392761 444.310148,450.392761 C444.310148,450.392761 440.845518,450.73985 439.113203,453.863647 C437.380888,456.987445 438.073814,459.417065 438.073814,459.417065 C438.073814,459.417065 434.26272,468.09428 433.569794,471.218078 C432.876868,474.341875 428.719312,477.118584 428.719312,477.118584 C428.719312,477.118584 425.601145,478.506939 423.86883,477.812761 C422.136515,477.118584 423.86883,473.300609 423.86883,473.300609 C423.86883,473.300609 424.908219,466.358837 425.601145,463.582128 C426.294071,460.80542 425.254682,458.722888 425.254682,458.722888 L423.175904,459.069976 C423.175904,459.069976 412.782013,462.540863 411.049698,463.582128 C409.317383,464.623394 402.041659,475.73023 401.348733,476.771495 C400.655807,477.812761 397.53764,477.465673 397.53764,477.465673 L375.71047,477.118584 C375.71047,477.118584 370.859987,476.771495 369.820598,475.73023 C368.434746,474.341875 367.74182,473.647698 367.74182,473.647698 C367.74182,473.647698 360.119634,470.176812 358.040856,469.135546 C355.962077,468.09428 357.34793,464.276306 356.655003,462.193774 C355.962077,460.458331 352.150984,463.582128 352.150984,463.582128 C352.150984,463.582128 349.725743,466.011749 347.646965,469.135546 C345.91465,472.606432 344.528798,474.688964 344.528798,477.118584 C344.528798,479.548204 354.576225,482.672002 354.576225,482.672002 L359.080245,491.696306 C359.080245,491.696306 356.30854,493.08466 354.229762,493.778837 C352.150984,494.125926 351.804521,494.473014 349.725743,496.208457 C347.646965,497.943901 344.875261,502.108964 344.875261,502.108964 C344.875261,502.108964 334.827833,510.43909 331.709666,517.380863 C328.245036,524.322635 322.355164,527.099344 322.355164,527.099344 C322.355164,527.099344 317.504682,528.487698 316.465293,527.793521 C316.11883,527.793521 315.772367,527.446432 314.386515,528.140609 L304.68555,533.694027 C304.68555,533.694027 304.68555,533.694027 302.953235,539.247445 C301.22092,545.147951 301.22092,543.412508 298.102753,548.965926 C295.331048,554.866432 294.291659,549.313014 294.291659,549.313014 C294.291659,549.313014 294.291659,549.313014 291.866418,545.49504 C289.441177,541.329976 288.055325,539.941622 288.055325,539.941622 L278.700823,539.941622 C278.700823,539.941622 278.700823,539.941622 268.999859,542.024154 C259.298894,544.106685 268.999859,542.024154 263.45645,544.800863 C257.913042,547.577571 256.180727,551.048457 256.180727,551.048457 C256.180727,551.048457 255.487801,553.130989 254.448412,558.684407 C253.06256,563.890736 249.944393,564.584913 249.944393,564.584913 L246.826225,571.526685 L243.015132,578.815546 L234.353557,578.121369 C234.353557,578.121369 234.353557,578.121369 233.314167,575.34466 C232.274778,572.91504 231.235389,572.91504 230.888926,567.361622 C230.542463,562.155293 232.274778,562.84947 232.621241,559.725673 C232.967704,556.601875 229.849537,556.254787 227.770759,553.130989 C225.691981,550.007192 227.424296,549.313014 226.73137,547.577571 C226.038444,545.842128 221.187962,543.759597 221.187962,543.759597 C221.187962,543.759597 226.73137,540.982888 229.849537,538.553268 C232.967704,536.123647 232.967704,530.57023 232.967704,530.57023 L241.62928,526.405166 L243.361595,520.50466 L247.172688,512.868711 L250.983782,514.257065 C250.983782,514.257065 254.101949,516.686685 261.377672,516.339597 C268.653396,515.992508 261.377672,516.339597 266.228155,516.686685 C270.732174,517.033774 268.999859,518.07504 271.771563,517.380863 C274.543267,516.686685 278.35436,509.744913 278.35436,509.744913 L282.511917,503.844407 C282.511917,503.844407 282.511917,503.844407 288.055325,504.885673 C292.905807,505.57985 288.401788,504.885673 298.449216,506.621116 C298.102753,504.538584 297.409827,502.108964 297.409827,501.067698 C297.063364,498.985166 300.874457,494.820103 300.874457,494.820103 C300.874457,494.820103 303.646161,492.043394 305.378476,489.266685 C307.110791,486.489976 304.339087,485.448711 304.339087,483.366179 C304.339087,481.283647 305.378476,480.58947 306.071402,478.506939 C306.764328,476.424407 304.339087,476.424407 304.339087,476.424407 L296.023975,478.506939 C296.023975,478.506939 293.25227,477.812761 284.937158,476.424407 C276.622045,475.036052 281.126065,476.077318 281.126065,476.077318 C281.126065,476.077318 273.503878,476.424407 272.118026,476.771495 C270.732174,477.118584 256.873653,481.977825 256.873653,481.977825 L247.172688,481.630736 C247.172688,481.630736 247.172688,481.630736 245.09391,480.936559 C243.015132,480.58947 236.778798,483.01909 229.156611,487.878331 C221.534425,492.737571 225.345518,488.919597 214.951627,492.737571 C204.9042,496.902635 208.022367,494.820103 208.022367,494.820103 L202.132495,493.431749 C202.132495,493.431749 199.707254,496.555546 196.93555,501.761875 C194.163846,506.968204 192.431531,506.968204 190.352753,509.744913 C187.927511,512.521622 188.620438,511.827445 188.620438,511.827445 L182.730566,506.968204 L175.10838,505.57985 C175.10838,505.57985 170.950823,503.497318 168.179119,503.497318 C165.753878,503.497318 153.627672,507.662382 153.627672,507.662382 C153.627672,507.662382 153.627672,507.662382 153.281209,510.092002 C152.934746,512.868711 154.667061,515.992508 154.667061,515.992508 L159.171081,521.893014 C159.171081,521.893014 159.171081,521.893014 162.982174,522.587192 C166.793267,523.281369 168.872045,521.198837 168.872045,521.198837 C168.872045,521.198837 170.950823,519.810483 171.990212,520.851749 C173.029602,522.240103 175.10838,526.752255 175.10838,526.752255 L174.068991,531.264407 C174.068991,531.264407 172.336675,532.652761 169.564971,536.123647 C166.793267,539.594533 170.60436,538.553268 170.60436,538.553268 L176.147769,541.677065 C176.147769,541.677065 178.57301,542.718331 180.651788,545.147951 C182.730566,547.577571 186.195196,554.519344 188.620438,556.601875 C191.045679,558.684407 167.832656,578.815546 167.832656,581.592255 C167.832656,584.368964 168.179119,586.451495 167.832656,593.740356 C167.486193,601.029217 166.100341,601.029217 165.407415,603.111749 C164.714489,605.19428 161.596322,614.565673 161.596322,614.565673 C161.596322,614.565673 161.596322,614.565673 158.131692,615.606939 C154.667061,616.648204 156.399376,617.342382 153.974135,619.424913 C151.548894,621.507445 148.430727,624.631242 141.84793,626.713774 C141.84793,626.713774 142.194393,626.713774 143.580245,622.895799 C144.966097,619.077825 142.194393,619.077825 141.501466,616.648204 C140.80854,614.218584 143.926708,613.177318 146.351949,610.747698 C148.77719,608.318078 143.233782,607.623901 140.462077,607.623901 C137.690373,607.623901 136.650984,614.218584 133.532817,616.648204 C130.761113,619.424913 124.871241,618.730736 124.871241,618.730736 C124.871241,618.730736 127.642946,615.954027 127.989409,612.83023 C127.989409,610.053521 126.257093,607.276812 123.485389,604.153014 C120.713685,601.029217 124.524778,596.169976 125.564167,591.657825 C126.603557,587.492761 125.564167,587.492761 126.257093,584.368964 C126.95002,581.245166 133.87928,575.691749 133.87928,575.691749 C133.87928,575.691749 138.729762,568.749976 140.80854,566.667445 C142.540856,564.584913 140.80854,562.502382 139.076225,558.337318 C137.34391,554.172255 130.41465,550.701369 130.41465,550.701369 L130.068187,546.189217 L125.564167,544.106685 L119.674296,543.412508 C119.674296,543.412508 115.51674,544.106685 114.130888,544.453774 C112.745036,544.800863 107.201627,548.965926 107.201627,548.965926 L103.044071,548.618837 Z M26.6443952,545.314067 C26.3443952,545.314067 26.3443952,545.314067 26.6443952,545.314067 Z M26.7193952,545.314067 C26.4193952,545.314067 26.4193952,545.314067 26.4193952,545.314067 C26.4193952,545.314067 26.7193952,545.314067 26.7193952,545.314067 Z M28.4918314,544.523249 C28.1918314,544.523249 27.8918314,544.823249 27.5918314,544.823249 C27.8918314,544.823249 28.1918314,544.523249 28.4918314,544.523249 Z" id="Combined-Shape" fill="#B44110" transform="translate(280.231733, 398.213774) rotate(7.000000) translate(-280.231733, -398.213774) "></path>
                    <g id="Shape" transform="translate(604.074667, 114.936334) rotate(10.000000) translate(-604.074667, -114.936334) ">
                        <use fill="#2D9E7B" xlink:href="#path-1"></use>
                        <use fill="#B44110" xlink:href="#path-1"></use>
                    </g>
                </g>
            </g>
        </g>
    </g>
</svg>