<?xml version="1.0" encoding="UTF-8"?>
<svg width="233px" height="130px" viewBox="0 0 233 130" version="1.1" xmlns="http://www.w3.org/2000/svg" xmlns:xlink="http://www.w3.org/1999/xlink">
    <!-- Generator: Sketch 46.2 (44496) - http://www.bohemiancoding.com/sketch -->
    <title>mountain</title>
    <desc>Created with Sketch.</desc>
    <defs></defs>
    <g id="Page-1" stroke="none" stroke-width="1" fill="none" fill-rule="evenodd">
        <g id="sk-samurai-map" transform="translate(-1182.000000, -1429.000000)">
            <g id="Free-Yakuza-Vector" transform="translate(1013.000000, 1248.000000)">
                <g id="mountain" transform="translate(169.000000, 181.000000)">
                    <g id="mountain2-copy" transform="translate(52.650000, 0.000000)">
                        <path d="M180.444275,94.9438202 C180.117149,94.6847608 179.84666,94.4563736 179.632807,94.2586586 C177.868321,92.6273215 177.672267,92.4968145 179.044645,93.8671377 C176.397915,93.7692575 148.823138,62.0068467 132.63237,34.9030426 C131.490353,32.9912741 120.953616,12.0127765 118.561969,7.63465771 C116.091571,3.11237553 110.873156,1.54931798 108.759267,0.880922043 C106.99478,0.293640681 105.132267,-1.42108547e-14 103.171726,-1.42108547e-14 L77.4886451,-1.42108547e-14 C69.6464829,-1.42108547e-14 62.49051,4.89401135 59.8437802,12.3329086 C48.276591,44.2418626 7.79142888,91.811653 1.7137532,93.6713773 L1.12559104,94.2586586 L-2.36921593e-13,94.9438202 L180.444275,94.9438202 Z" id="Shape-Copy" fill="#1C92B2" fill-rule="nonzero"></path>
                        <path d="M63.3727532,13.7032318 C65.5293478,7.73253794 71.2149154,3.81732885 77.5866721,3.81732885 L78.4689154,3.81732885 L102.38751,3.81732885 L103.269753,3.81732885 C105.03424,3.81732885 106.798726,4.11096954 108.465186,4.6982509 C112.582321,6.1664543 115.91524,9.3965018 117.483672,13.7032318 C118.954078,17.8142013 120.914618,22.0230511 123.16924,26.3297811 C125.12978,30.0492297 127.286375,33.8665586 129.639023,37.5860072 C119.640267,32.9856365 115.91524,22.7082127 115.91524,22.7082127 C115.91524,22.7082127 121.306726,41.9906174 119.640267,44.2418626 C117.973807,46.4931078 109.151375,24.9594579 108.563213,22.7082127 C107.97505,20.4569675 108.857294,40.3266535 107.97505,44.2418626 C107.092807,48.2549519 96.8979964,25.8403799 96.3098343,22.1209313 C95.7216721,18.4014827 94.6433748,43.0672999 92.8788883,46.7867485 C91.2124289,50.5061972 86.0169964,30.3428704 85.8209424,24.0785359 C85.5268613,17.8142013 75.0379694,46.1994672 75.0379694,46.1994672 C75.0379694,46.1994672 76.2142937,28.2873856 76.2142937,25.448859 C76.2142937,22.6103324 58.2753478,47.863431 55.7266451,48.7443531 C53.1779424,49.6252751 65.6273748,25.1552183 65.6273748,25.1552183 C62.588537,28.7767867 57.1970505,32.3983551 52.5897802,35.2368817 C57.0990235,27.9937449 60.9220775,20.5548477 63.3727532,13.7032318 Z" id="Path" fill="#FFFFFF"></path>
                    </g>
                    <g transform="translate(0.000000, 34.325843)">
                        <path d="M134.605608,70.8426966 C134.361583,70.6493984 134.159807,70.4789865 134.00028,70.3314607 C132.68403,69.1142322 132.53778,69.0168539 133.56153,70.0393258 C131.587155,69.9662921 111.01726,46.2666472 98.9394697,26.0430395 C98.087562,24.616566 90.2274957,8.96337943 88.4434046,5.69662921 C86.6005667,2.32231097 82.7077981,1.15602957 81.1309046,0.657303371 C79.8146546,0.219101124 78.4252796,-1.42108547e-14 76.9627796,-1.42108547e-14 L57.8040296,-1.42108547e-14 C51.9540296,-1.42108547e-14 46.6159046,3.65168539 44.6415296,9.20224719 C36.0127796,33.011236 5.81215461,68.505618 1.27840461,69.8932584 L0.839654605,70.3314607 L-1.22513111e-13,70.8426966 L134.605608,70.8426966 Z" id="Shape" fill="#1C92B2" fill-rule="nonzero"></path>
                        <path d="M47.2740296,10.2247191 C48.8827796,5.76966292 53.1240296,2.84831461 57.8771546,2.84831461 L58.5352796,2.84831461 L76.3777796,2.84831461 L77.0359046,2.84831461 C78.3521546,2.84831461 79.6684046,3.06741573 80.9115296,3.50561798 C83.9827796,4.6011236 86.4690296,7.01123596 87.6390296,10.2247191 C88.7359046,13.2921348 90.1984046,16.4325843 91.8802796,19.6460674 C93.3427796,22.4213483 94.9515296,25.2696629 96.7065296,28.0449438 C89.2477796,24.6123596 86.4690296,16.9438202 86.4690296,16.9438202 C86.4690296,16.9438202 90.4909046,31.3314607 89.2477796,33.011236 C88.0046546,34.6910112 81.4234046,18.6235955 80.9846546,16.9438202 C80.5459046,15.2640449 81.2040296,30.0898876 80.5459046,33.011236 C79.8877796,36.005618 72.2827796,19.2808989 71.8440296,16.505618 C71.4052796,13.7303371 70.6009046,32.1348315 69.2846546,34.9101124 C68.0415296,37.6853933 64.1659046,22.6404494 64.0196546,17.9662921 C63.8002796,13.2921348 55.9759046,34.4719101 55.9759046,34.4719101 C55.9759046,34.4719101 56.8534046,21.1067416 56.8534046,18.988764 C56.8534046,16.8707865 43.4715296,35.7134831 41.5702796,36.3707865 C39.6690296,37.0280899 48.9559046,18.7696629 48.9559046,18.7696629 C46.6890296,21.4719101 42.6671546,24.1741573 39.2302796,26.2921348 C42.5940296,20.8876404 45.4459046,15.3370787 47.2740296,10.2247191 Z" id="Path" fill="#FFFFFF"></path>
                        <g id="mountain2" transform="translate(81.168750, 24.831461)">
                            <path d="M134.605608,70.8426966 C134.361583,70.6493984 134.159807,70.4789865 134.00028,70.3314607 C132.68403,69.1142322 132.53778,69.0168539 133.56153,70.0393258 C131.587155,69.9662921 111.01726,46.2666472 98.9394697,26.0430395 C98.087562,24.616566 90.2274957,8.96337943 88.4434046,5.69662921 C86.6005667,2.32231097 82.7077981,1.15602957 81.1309046,0.657303371 C79.8146546,0.219101124 78.4252796,-1.42108547e-14 76.9627796,-1.42108547e-14 L57.8040296,-1.42108547e-14 C51.9540296,-1.42108547e-14 46.6159046,3.65168539 44.6415296,9.20224719 C36.0127796,33.011236 5.81215461,68.505618 1.27840461,69.8932584 L0.839654605,70.3314607 L-1.22513111e-13,70.8426966 L134.605608,70.8426966 Z" id="Shape-Copy" fill="#1C92B2" fill-rule="nonzero"></path>
                            <path d="M47.2740296,10.2247191 C48.8827796,5.76966292 53.1240296,2.84831461 57.8771546,2.84831461 L58.5352796,2.84831461 L76.3777796,2.84831461 L77.0359046,2.84831461 C78.3521546,2.84831461 79.6684046,3.06741573 80.9115296,3.50561798 C83.9827796,4.6011236 86.4690296,7.01123596 87.6390296,10.2247191 C88.7359046,13.2921348 90.1984046,16.4325843 91.8802796,19.6460674 C93.3427796,22.4213483 94.9515296,25.2696629 96.7065296,28.0449438 C89.2477796,24.6123596 86.4690296,16.9438202 86.4690296,16.9438202 C86.4690296,16.9438202 90.4909046,31.3314607 89.2477796,33.011236 C88.0046546,34.6910112 81.4234046,18.6235955 80.9846546,16.9438202 C80.5459046,15.2640449 81.2040296,30.0898876 80.5459046,33.011236 C79.8877796,36.005618 72.2827796,19.2808989 71.8440296,16.505618 C71.4052796,13.7303371 70.6009046,32.1348315 69.2846546,34.9101124 C68.0415296,37.6853933 64.1659046,22.6404494 64.0196546,17.9662921 C63.8002796,13.2921348 55.9759046,34.4719101 55.9759046,34.4719101 C55.9759046,34.4719101 56.8534046,21.1067416 56.8534046,18.988764 C56.8534046,16.8707865 43.4715296,35.7134831 41.5702796,36.3707865 C39.6690296,37.0280899 48.9559046,18.7696629 48.9559046,18.7696629 C46.6890296,21.4719101 42.6671546,24.1741573 39.2302796,26.2921348 C42.5940296,20.8876404 45.4459046,15.3370787 47.2740296,10.2247191 Z" id="Path" fill="#FFFFFF"></path>
                        </g>
                    </g>
                </g>
            </g>
        </g>
    </g>
</svg>