<?xml version="1.0" encoding="UTF-8"?>
<svg width="123px" height="100px" viewBox="0 0 123 100" version="1.1" xmlns="http://www.w3.org/2000/svg" xmlns:xlink="http://www.w3.org/1999/xlink">
    <!-- Generator: Sketch 46.2 (44496) - http://www.bohemiancoding.com/sketch -->
    <title>mt oyama</title>
    <desc>Created with Sketch.</desc>
    <defs></defs>
    <g id="Page-1" stroke="none" stroke-width="1" fill="none" fill-rule="evenodd">
        <g id="sk-samurai-map" transform="translate(-1013.000000, -1559.000000)" fill-rule="nonzero" fill="#D23131">
            <g id="Free-Yakuza-Vector" transform="translate(1013.000000, 1248.000000)">
                <path d="M106.523153,326.087957 L106.523153,326.087957 L111.744212,326.087957 L113.642778,324.667118 L114.253032,322.569689 L114.253032,322.569689 L121.237045,322.569689 L123,318.780785 L123,318.780785 L123,318.780785 L123,318.780785 L123,318.780785 L123,311 C118.050165,314.38295 82.3842337,315.194858 61.5,315.397835 C40.6157663,315.262517 4.94983462,314.450609 0,311 L0,318.780785 L0,318.780785 L0,318.780785 L1.7629548,322.569689 L8.74696803,322.569689 L9.35722161,324.667118 L11.2557883,326.087957 L16.4768467,326.087957 L16.4768467,328.59134 L18.7144432,328.59134 L18.6466373,332.109608 L16.6124587,332.109608 L15.7309813,334.883627 L5.22105843,334.815968 L5.22105843,340.499323 L18.4432194,340.566982 L18.4432194,340.7023 L16.6124587,411 L28.2750827,411 L26.4443219,343.679296 L26.4443219,343.543978 L26.376516,340.7023 L26.4443219,340.7023 L96.8269019,341.040595 L94.8605292,411 L106.523153,411 L104.692393,343.679296 L104.692393,343.679296 L104.624587,341.040595 L104.692393,341.040595 L117.778942,341.108254 L117.778942,335.424899 L107.404631,335.35724 L107.404631,335.289581 L106.387541,332.109608 L104.353363,332.109608 L104.285557,328.59134 L106.523153,328.59134 L106.523153,326.087957 Z M97.0303197,332.177267 L94.9961411,332.177267 L93.9790518,335.35724 L29.0209482,335.086604 L28.8853363,334.748309 L28.0716648,332.177267 L26.0374862,332.177267 L25.9696803,328.658999 L28.2072767,328.658999 L28.2072767,326.155616 L75.6036384,326.155616 L94.7927233,326.155616 L94.7927233,328.658999 L97.0303197,328.658999 L97.0303197,332.177267 Z" id="mt-oyama"></path>
            </g>
        </g>
    </g>
</svg>