<?xml version="1.0" encoding="UTF-8"?>
<svg width="21px" height="40px" viewBox="0 0 21 40" version="1.1" xmlns="http://www.w3.org/2000/svg" xmlns:xlink="http://www.w3.org/1999/xlink">
    <!-- Generator: Sketch 46.2 (44496) - http://www.bohemiancoding.com/sketch -->
    <title>Combined Shape</title>
    <desc>Created with Sketch.</desc>
    <defs></defs>
    <g id="Page-1" stroke="none" stroke-width="1" fill="none" fill-rule="evenodd">
        <g id="sk-samurai-quiz-kids" transform="translate(-1255.000000, -377.000000)" stroke="#C23913" stroke-width="0.95" fill="#C23913">
            <g id="text" transform="translate(645.000000, 360.000000)">
                <path d="M612.357143,32.9285714 C611.452381,32.0238095 611,30.2142857 611,27.5 C611,23.4285714 613.714286,18 620.5,18 C627.285714,18 630,21.3928571 630,27.5 C630,33.6071429 621.857143,39.7142857 621.857143,39.7142857 C621.857143,39.7142857 621.857143,49.2142857 620.5,49.2142857 C619.595238,49.2142857 619.142857,45.1428571 619.142857,37 C622.761905,33.3809524 624.571429,30.6666667 624.571429,28.8571429 C624.571429,26.1428571 624.571429,23.4285714 621.857143,23.4285714 C619.142857,23.4285714 616.428571,24.7857143 616.428571,27.5 C616.428571,29.3095238 616.428571,30.2142857 616.428571,30.2142857 L612.357143,32.9285714 Z M619.142857,56 L617.785714,51.9285714 L624.571429,51.9285714 L623.214286,56 L619.142857,56 Z" id="Combined-Shape"></path>
            </g>
        </g>
    </g>
</svg>