<?xml version="1.0" encoding="UTF-8"?>
<svg width="91px" height="130px" viewBox="0 0 91 130" version="1.1" xmlns="http://www.w3.org/2000/svg" xmlns:xlink="http://www.w3.org/1999/xlink">
    <!-- Generator: Sketch 46.2 (44496) - http://www.bohemiancoding.com/sketch -->
    <title>temple</title>
    <desc>Created with Sketch.</desc>
    <defs>
        <linearGradient x1="50%" y1="0%" x2="50%" y2="100%" id="linearGradient-1">
            <stop stop-color="#D23131" offset="0%"></stop>
            <stop stop-color="#AC0F0F" offset="100%"></stop>
        </linearGradient>
    </defs>
    <g id="Page-1" stroke="none" stroke-width="1" fill="none" fill-rule="evenodd">
        <g id="sk-samurai-map" transform="translate(-1091.000000, -1248.000000)" fill-rule="nonzero" fill="url(#linearGradient-1)">
            <g id="Free-Yakuza-Vector" transform="translate(1013.000000, 1248.000000)">
                <path d="M145.103085,114.484753 C145.103085,114.484753 165.439428,107.649842 169,103.822292 L169,101.976866 C169,101.976866 155.921746,99.3796004 143.528217,93.2281809 L143.528217,82.4290221 C147.088789,81.1987382 162.563582,75.7991588 165.576373,72.5184017 L165.576373,70.7413249 C165.576373,70.7413249 154.68924,68.5541535 143.528217,63.4963197 L143.528217,51.8086225 C148.937547,49.8948475 159.687735,45.7939012 162.084274,43.1966351 L162.084274,41.5562566 C162.084274,41.5562566 139.488337,37.1135647 127.094808,25.767613 L127.094808,19.7528917 L126.136193,19.7528917 L124.424379,19.7528917 C124.378731,19.7073256 124.310258,19.320014 124.218962,18.5909569 C125.999248,18.5226078 127.368698,18.2492114 127.368698,17.9758149 C127.368698,17.6340694 125.999248,17.360673 124.218962,17.360673 L124.218962,16.5404837 C125.999248,16.4721346 127.368698,16.1987382 127.368698,15.9253417 C127.368698,15.5835962 125.999248,15.3101998 124.218962,15.3101998 L124.218962,14.4900105 C125.999248,14.4216614 127.368698,14.148265 127.368698,13.8748686 C127.368698,13.533123 125.999248,13.2597266 124.218962,13.2597266 L124.218962,12.4395373 C125.999248,12.3711882 127.368698,12.0977918 127.368698,11.8243954 C127.368698,11.4826498 125.999248,11.2092534 124.218962,11.2092534 L124.218962,10.3890641 C125.999248,10.320715 127.368698,10.0473186 127.368698,9.77392219 C127.368698,9.43217666 125.999248,9.15878023 124.218962,9.15878023 L124.218962,8.54363828 L125.588412,8.54363828 C125.930775,8.54363828 126.204665,8.27024185 126.204665,7.92849632 C126.204665,7.58675079 125.930775,7.31335436 125.588412,7.31335436 L124.218962,7.31335436 L124.218962,6.6298633 C124.766742,6.5615142 125.109105,6.28811777 125.109105,5.67297581 C125.109105,5.05783386 124.766742,4.30599369 124.218962,3.89589905 L124.218962,3.00736067 C124.766742,2.93901157 125.109105,2.66561514 125.109105,2.05047319 C125.109105,1.16193481 124.355907,0 123.534236,0 C122.644093,0 121.959368,1.16193481 121.959368,2.05047319 C121.959368,2.66561514 122.301731,2.93901157 122.849511,3.00736067 L122.849511,3.89589905 C122.301731,4.30599369 121.959368,5.05783386 121.959368,5.67297581 C121.959368,6.28811777 122.301731,6.5615142 122.849511,6.6298633 L122.849511,7.31335436 L121.48006,7.31335436 C121.137698,7.31335436 120.863807,7.58675079 120.863807,7.92849632 C120.863807,8.27024185 121.137698,8.54363828 121.48006,8.54363828 L122.849511,8.54363828 L122.849511,9.15878023 C121.069225,9.22712934 119.699774,9.50052576 119.699774,9.77392219 C119.699774,10.1156677 121.069225,10.3890641 122.849511,10.3890641 L122.849511,11.2092534 C121.069225,11.2776025 119.699774,11.5509989 119.699774,11.8243954 C119.699774,12.1661409 121.069225,12.4395373 122.849511,12.4395373 L122.849511,13.2597266 C121.069225,13.3280757 119.699774,13.6014721 119.699774,13.8748686 C119.699774,14.2166141 121.069225,14.4900105 122.849511,14.4900105 L122.849511,15.3101998 C121.069225,15.3785489 119.699774,15.6519453 119.699774,15.9253417 C119.699774,16.2670873 121.069225,16.5404837 122.849511,16.5404837 L122.849511,17.360673 C121.069225,17.4290221 119.699774,17.7024185 119.699774,17.9758149 C119.699774,18.3175605 121.069225,18.5909569 122.849511,18.5909569 L122.849511,19.6845426 C122.803863,19.6845426 122.141961,19.7073256 120.863807,19.7528917 L119.905192,19.7528917 L119.905192,25.767613 C107.44319,37.1135647 84.9157261,41.5562566 84.9157261,41.5562566 L84.9157261,43.1966351 C87.3122649,45.7939012 98.062453,49.8948475 103.471783,51.8086225 L103.471783,63.4963197 C92.3792325,68.6225026 81.4236268,70.7413249 81.4236268,70.7413249 L81.4236268,72.5184017 C84.4364184,75.7991588 99.9112114,81.1987382 103.471783,82.4290221 L103.471783,93.2281809 C91.0782543,99.3796004 78,101.976866 78,101.976866 L78,103.822292 C81.5605719,107.718191 101.896915,114.484753 101.896915,114.484753 L103.471783,114.963197 L103.471783,130 L143.733634,130 L143.733634,114.963197 L145.103085,114.484753 Z M130.1076,86.0515247 L130.1076,90.767613 L126.273138,90.767613 L126.273138,86.0515247 L119.494357,86.0515247 L119.494357,90.767613 L116.07073,90.767613 L116.07073,86.0515247 L109.291949,86.0515247 L109.291949,90.767613 L106.62152,90.767613 L106.62152,82.9758149 L106.62152,82.8391167 L140.241535,82.8391167 L140.241535,82.9758149 L140.241535,90.767613 L136.817908,90.767613 L136.817908,86.0515247 L130.1076,86.0515247 Z M106.62152,54.064143 L140.241535,54.064143 L140.241535,62.402734 L136.817908,62.402734 L136.817908,58.0283912 L130.039127,58.0283912 L130.039127,62.402734 L126.273138,62.402734 L126.273138,58.0283912 L119.494357,58.0283912 L119.494357,62.402734 L116.07073,62.402734 L116.07073,58.0283912 L109.291949,58.0283912 L109.291949,62.402734 L106.62152,62.402734 L106.62152,54.064143 L106.62152,54.064143 Z M140.241535,126.787592 L136.817908,126.787592 L136.817908,122.481598 L130.039127,122.481598 L130.039127,126.787592 L126.273138,126.787592 L126.273138,122.481598 L119.494357,122.481598 L119.494357,126.787592 L116.07073,126.787592 L116.07073,122.481598 L109.291949,122.481598 L109.291949,126.787592 L106.62152,126.787592 L106.62152,117.902208 L140.241535,117.902208 L140.241535,126.787592 Z" id="temple"></path>
            </g>
        </g>
    </g>
</svg>